<mxfile host="Electron" modified="2023-05-22T17:41:11.976Z" agent="Mozilla/5.0 (X11; Linux x86_64) AppleWebKit/537.36 (KHTML, like Gecko) draw.io/21.2.8 Chrome/106.0.5249.199 Electron/21.4.4 Safari/537.36" etag="e0rirfHKz1NKMCQ8LyhV" compressed="false" version="21.2.8" type="device">
  <diagram name="Page-1" id="gjvab5PQ4RDI5xns0hvE">
    <mxGraphModel dx="1195" dy="395" grid="1" gridSize="10" guides="1" tooltips="1" connect="1" arrows="1" fold="1" page="0" pageScale="1" pageWidth="850" pageHeight="1100" math="0" shadow="0">
      <root>
        <mxCell id="0" />
        <mxCell id="1" parent="0" />
        <mxCell id="i_aSIQjh3gjEK6YwRYuW-27" value="" style="edgeStyle=orthogonalEdgeStyle;rounded=0;orthogonalLoop=1;jettySize=auto;html=1;exitX=0.5;exitY=1;exitDx=0;exitDy=0;movable=0;resizable=0;rotatable=0;deletable=0;editable=0;locked=1;connectable=0;" parent="1" source="i_aSIQjh3gjEK6YwRYuW-3" edge="1">
          <mxGeometry relative="1" as="geometry">
            <mxPoint x="280" y="120" as="targetPoint" />
          </mxGeometry>
        </mxCell>
        <mxCell id="i_aSIQjh3gjEK6YwRYuW-12" value="Trip&lt;br&gt;Production" style="text;html=1;strokeColor=none;fillColor=default;align=center;verticalAlign=middle;whiteSpace=wrap;rounded=0;labelBackgroundColor=none;fontStyle=1" parent="1" vertex="1">
          <mxGeometry x="98" y="675" width="80" height="30" as="geometry" />
        </mxCell>
        <mxCell id="i_aSIQjh3gjEK6YwRYuW-13" value="Population" style="text;html=1;align=center;verticalAlign=middle;resizable=0;points=[];autosize=1;strokeColor=none;fillColor=default;labelBackgroundColor=none;rounded=0;fontStyle=1" parent="1" vertex="1">
          <mxGeometry x="93" y="615" width="90" height="30" as="geometry" />
        </mxCell>
        <mxCell id="i_aSIQjh3gjEK6YwRYuW-55" value="Destination&lt;br&gt;Choice" style="text;html=1;align=center;verticalAlign=middle;resizable=0;points=[];autosize=1;strokeColor=none;fillColor=default;rounded=0;fontStyle=1" parent="1" vertex="1">
          <mxGeometry x="93" y="740" width="90" height="40" as="geometry" />
        </mxCell>
        <mxCell id="i_aSIQjh3gjEK6YwRYuW-56" value="Mode&lt;br&gt;Choice" style="text;html=1;align=center;verticalAlign=middle;resizable=0;points=[];autosize=1;strokeColor=none;fillColor=default;rounded=0;fontStyle=1" parent="1" vertex="1">
          <mxGeometry x="108" y="810" width="60" height="40" as="geometry" />
        </mxCell>
        <mxCell id="OZ3TrftDz0q_78ra8QCF-2" value="" style="childLayout=tableLayout;recursiveResize=0;shadow=0;fillColor=none;direction=west;" vertex="1" parent="1">
          <mxGeometry x="303.5" y="460" width="346.5" height="110" as="geometry" />
        </mxCell>
        <mxCell id="OZ3TrftDz0q_78ra8QCF-3" value="" style="shape=tableRow;horizontal=0;startSize=0;swimlaneHead=0;swimlaneBody=0;top=0;left=0;bottom=0;right=0;dropTarget=0;collapsible=0;recursiveResize=0;expand=0;fontStyle=0;fillColor=none;strokeColor=inherit;" vertex="1" parent="OZ3TrftDz0q_78ra8QCF-2">
          <mxGeometry width="346.5" height="28" as="geometry" />
        </mxCell>
        <mxCell id="OZ3TrftDz0q_78ra8QCF-4" value="Household ID" style="connectable=0;recursiveResize=0;strokeColor=inherit;fillColor=none;align=center;whiteSpace=wrap;html=1;" vertex="1" parent="OZ3TrftDz0q_78ra8QCF-3">
          <mxGeometry width="66" height="28" as="geometry">
            <mxRectangle width="66" height="28" as="alternateBounds" />
          </mxGeometry>
        </mxCell>
        <mxCell id="OZ3TrftDz0q_78ra8QCF-5" value="Persons" style="connectable=0;recursiveResize=0;strokeColor=inherit;fillColor=none;align=center;whiteSpace=wrap;html=1;" vertex="1" parent="OZ3TrftDz0q_78ra8QCF-3">
          <mxGeometry x="66" width="50" height="28" as="geometry">
            <mxRectangle width="50" height="28" as="alternateBounds" />
          </mxGeometry>
        </mxCell>
        <mxCell id="OZ3TrftDz0q_78ra8QCF-6" value="Workers" style="connectable=0;recursiveResize=0;strokeColor=inherit;fillColor=none;align=center;whiteSpace=wrap;html=1;" vertex="1" parent="OZ3TrftDz0q_78ra8QCF-3">
          <mxGeometry x="116" width="57" height="28" as="geometry">
            <mxRectangle width="57" height="28" as="alternateBounds" />
          </mxGeometry>
        </mxCell>
        <mxCell id="OZ3TrftDz0q_78ra8QCF-29" value="Vehicles" style="connectable=0;recursiveResize=0;strokeColor=inherit;fillColor=none;align=center;whiteSpace=wrap;html=1;" vertex="1" parent="OZ3TrftDz0q_78ra8QCF-3">
          <mxGeometry x="173" width="58" height="28" as="geometry">
            <mxRectangle width="58" height="28" as="alternateBounds" />
          </mxGeometry>
        </mxCell>
        <mxCell id="OZ3TrftDz0q_78ra8QCF-32" value="Income" style="connectable=0;recursiveResize=0;strokeColor=inherit;fillColor=none;align=center;whiteSpace=wrap;html=1;" vertex="1" parent="OZ3TrftDz0q_78ra8QCF-3">
          <mxGeometry x="231" width="58" height="28" as="geometry">
            <mxRectangle width="58" height="28" as="alternateBounds" />
          </mxGeometry>
        </mxCell>
        <mxCell id="OZ3TrftDz0q_78ra8QCF-35" value="..." style="connectable=0;recursiveResize=0;strokeColor=inherit;fillColor=none;align=center;whiteSpace=wrap;html=1;" vertex="1" parent="OZ3TrftDz0q_78ra8QCF-3">
          <mxGeometry x="289" width="58" height="28" as="geometry">
            <mxRectangle width="58" height="28" as="alternateBounds" />
          </mxGeometry>
        </mxCell>
        <mxCell id="OZ3TrftDz0q_78ra8QCF-7" style="shape=tableRow;horizontal=0;startSize=0;swimlaneHead=0;swimlaneBody=0;top=0;left=0;bottom=0;right=0;dropTarget=0;collapsible=0;recursiveResize=0;expand=0;fontStyle=0;fillColor=none;strokeColor=inherit;" vertex="1" parent="OZ3TrftDz0q_78ra8QCF-2">
          <mxGeometry y="28" width="346.5" height="13" as="geometry" />
        </mxCell>
        <mxCell id="OZ3TrftDz0q_78ra8QCF-8" value="1" style="connectable=0;recursiveResize=0;strokeColor=inherit;fillColor=none;align=center;whiteSpace=wrap;html=1;" vertex="1" parent="OZ3TrftDz0q_78ra8QCF-7">
          <mxGeometry width="66" height="13" as="geometry">
            <mxRectangle width="66" height="13" as="alternateBounds" />
          </mxGeometry>
        </mxCell>
        <mxCell id="OZ3TrftDz0q_78ra8QCF-9" value="4" style="connectable=0;recursiveResize=0;strokeColor=inherit;fillColor=none;align=center;whiteSpace=wrap;html=1;" vertex="1" parent="OZ3TrftDz0q_78ra8QCF-7">
          <mxGeometry x="66" width="50" height="13" as="geometry">
            <mxRectangle width="50" height="13" as="alternateBounds" />
          </mxGeometry>
        </mxCell>
        <mxCell id="OZ3TrftDz0q_78ra8QCF-10" value="2" style="connectable=0;recursiveResize=0;strokeColor=inherit;fillColor=none;align=center;whiteSpace=wrap;html=1;" vertex="1" parent="OZ3TrftDz0q_78ra8QCF-7">
          <mxGeometry x="116" width="57" height="13" as="geometry">
            <mxRectangle width="57" height="13" as="alternateBounds" />
          </mxGeometry>
        </mxCell>
        <mxCell id="OZ3TrftDz0q_78ra8QCF-30" value="1" style="connectable=0;recursiveResize=0;strokeColor=inherit;fillColor=none;align=center;whiteSpace=wrap;html=1;" vertex="1" parent="OZ3TrftDz0q_78ra8QCF-7">
          <mxGeometry x="173" width="58" height="13" as="geometry">
            <mxRectangle width="58" height="13" as="alternateBounds" />
          </mxGeometry>
        </mxCell>
        <mxCell id="OZ3TrftDz0q_78ra8QCF-33" value="65000" style="connectable=0;recursiveResize=0;strokeColor=inherit;fillColor=none;align=center;whiteSpace=wrap;html=1;" vertex="1" parent="OZ3TrftDz0q_78ra8QCF-7">
          <mxGeometry x="231" width="58" height="13" as="geometry">
            <mxRectangle width="58" height="13" as="alternateBounds" />
          </mxGeometry>
        </mxCell>
        <mxCell id="OZ3TrftDz0q_78ra8QCF-36" value="..." style="connectable=0;recursiveResize=0;strokeColor=inherit;fillColor=none;align=center;whiteSpace=wrap;html=1;" vertex="1" parent="OZ3TrftDz0q_78ra8QCF-7">
          <mxGeometry x="289" width="58" height="13" as="geometry">
            <mxRectangle width="58" height="13" as="alternateBounds" />
          </mxGeometry>
        </mxCell>
        <mxCell id="OZ3TrftDz0q_78ra8QCF-11" style="shape=tableRow;horizontal=0;startSize=0;swimlaneHead=0;swimlaneBody=0;top=0;left=0;bottom=0;right=0;dropTarget=0;collapsible=0;recursiveResize=0;expand=0;fontStyle=0;fillColor=none;strokeColor=inherit;" vertex="1" parent="OZ3TrftDz0q_78ra8QCF-2">
          <mxGeometry y="41" width="346.5" height="14" as="geometry" />
        </mxCell>
        <mxCell id="OZ3TrftDz0q_78ra8QCF-12" value="2" style="connectable=0;recursiveResize=0;strokeColor=inherit;fillColor=none;align=center;whiteSpace=wrap;html=1;" vertex="1" parent="OZ3TrftDz0q_78ra8QCF-11">
          <mxGeometry width="66" height="14" as="geometry">
            <mxRectangle width="66" height="14" as="alternateBounds" />
          </mxGeometry>
        </mxCell>
        <mxCell id="OZ3TrftDz0q_78ra8QCF-13" value="3" style="connectable=0;recursiveResize=0;strokeColor=inherit;fillColor=none;align=center;whiteSpace=wrap;html=1;" vertex="1" parent="OZ3TrftDz0q_78ra8QCF-11">
          <mxGeometry x="66" width="50" height="14" as="geometry">
            <mxRectangle width="50" height="14" as="alternateBounds" />
          </mxGeometry>
        </mxCell>
        <mxCell id="OZ3TrftDz0q_78ra8QCF-14" value="1" style="connectable=0;recursiveResize=0;strokeColor=inherit;fillColor=none;align=center;whiteSpace=wrap;html=1;" vertex="1" parent="OZ3TrftDz0q_78ra8QCF-11">
          <mxGeometry x="116" width="57" height="14" as="geometry">
            <mxRectangle width="57" height="14" as="alternateBounds" />
          </mxGeometry>
        </mxCell>
        <mxCell id="OZ3TrftDz0q_78ra8QCF-31" value="2" style="connectable=0;recursiveResize=0;strokeColor=inherit;fillColor=none;align=center;whiteSpace=wrap;html=1;" vertex="1" parent="OZ3TrftDz0q_78ra8QCF-11">
          <mxGeometry x="173" width="58" height="14" as="geometry">
            <mxRectangle width="58" height="14" as="alternateBounds" />
          </mxGeometry>
        </mxCell>
        <mxCell id="OZ3TrftDz0q_78ra8QCF-34" value="86000" style="connectable=0;recursiveResize=0;strokeColor=inherit;fillColor=none;align=center;whiteSpace=wrap;html=1;" vertex="1" parent="OZ3TrftDz0q_78ra8QCF-11">
          <mxGeometry x="231" width="58" height="14" as="geometry">
            <mxRectangle width="58" height="14" as="alternateBounds" />
          </mxGeometry>
        </mxCell>
        <mxCell id="OZ3TrftDz0q_78ra8QCF-37" value="..." style="connectable=0;recursiveResize=0;strokeColor=inherit;fillColor=none;align=center;whiteSpace=wrap;html=1;" vertex="1" parent="OZ3TrftDz0q_78ra8QCF-11">
          <mxGeometry x="289" width="58" height="14" as="geometry">
            <mxRectangle width="58" height="14" as="alternateBounds" />
          </mxGeometry>
        </mxCell>
        <mxCell id="OZ3TrftDz0q_78ra8QCF-50" style="shape=tableRow;horizontal=0;startSize=0;swimlaneHead=0;swimlaneBody=0;top=0;left=0;bottom=0;right=0;dropTarget=0;collapsible=0;recursiveResize=0;expand=0;fontStyle=0;fillColor=none;strokeColor=inherit;" vertex="1" parent="OZ3TrftDz0q_78ra8QCF-2">
          <mxGeometry y="55" width="346.5" height="14" as="geometry" />
        </mxCell>
        <mxCell id="OZ3TrftDz0q_78ra8QCF-51" value="3" style="connectable=0;recursiveResize=0;strokeColor=inherit;fillColor=none;align=center;whiteSpace=wrap;html=1;" vertex="1" parent="OZ3TrftDz0q_78ra8QCF-50">
          <mxGeometry width="66" height="14" as="geometry">
            <mxRectangle width="66" height="14" as="alternateBounds" />
          </mxGeometry>
        </mxCell>
        <mxCell id="OZ3TrftDz0q_78ra8QCF-52" value="3" style="connectable=0;recursiveResize=0;strokeColor=inherit;fillColor=none;align=center;whiteSpace=wrap;html=1;" vertex="1" parent="OZ3TrftDz0q_78ra8QCF-50">
          <mxGeometry x="66" width="50" height="14" as="geometry">
            <mxRectangle width="50" height="14" as="alternateBounds" />
          </mxGeometry>
        </mxCell>
        <mxCell id="OZ3TrftDz0q_78ra8QCF-53" value="1" style="connectable=0;recursiveResize=0;strokeColor=inherit;fillColor=none;align=center;whiteSpace=wrap;html=1;" vertex="1" parent="OZ3TrftDz0q_78ra8QCF-50">
          <mxGeometry x="116" width="57" height="14" as="geometry">
            <mxRectangle width="57" height="14" as="alternateBounds" />
          </mxGeometry>
        </mxCell>
        <mxCell id="OZ3TrftDz0q_78ra8QCF-54" value="1" style="connectable=0;recursiveResize=0;strokeColor=inherit;fillColor=none;align=center;whiteSpace=wrap;html=1;" vertex="1" parent="OZ3TrftDz0q_78ra8QCF-50">
          <mxGeometry x="173" width="58" height="14" as="geometry">
            <mxRectangle width="58" height="14" as="alternateBounds" />
          </mxGeometry>
        </mxCell>
        <mxCell id="OZ3TrftDz0q_78ra8QCF-55" value="96000" style="connectable=0;recursiveResize=0;strokeColor=inherit;fillColor=none;align=center;whiteSpace=wrap;html=1;" vertex="1" parent="OZ3TrftDz0q_78ra8QCF-50">
          <mxGeometry x="231" width="58" height="14" as="geometry">
            <mxRectangle width="58" height="14" as="alternateBounds" />
          </mxGeometry>
        </mxCell>
        <mxCell id="OZ3TrftDz0q_78ra8QCF-56" value="..." style="connectable=0;recursiveResize=0;strokeColor=inherit;fillColor=none;align=center;whiteSpace=wrap;html=1;" vertex="1" parent="OZ3TrftDz0q_78ra8QCF-50">
          <mxGeometry x="289" width="58" height="14" as="geometry">
            <mxRectangle width="58" height="14" as="alternateBounds" />
          </mxGeometry>
        </mxCell>
        <mxCell id="OZ3TrftDz0q_78ra8QCF-61" style="shape=tableRow;horizontal=0;startSize=0;swimlaneHead=0;swimlaneBody=0;top=0;left=0;bottom=0;right=0;dropTarget=0;collapsible=0;recursiveResize=0;expand=0;fontStyle=0;fillColor=none;strokeColor=inherit;" vertex="1" parent="OZ3TrftDz0q_78ra8QCF-2">
          <mxGeometry y="69" width="346.5" height="14" as="geometry" />
        </mxCell>
        <mxCell id="OZ3TrftDz0q_78ra8QCF-62" value="4" style="connectable=0;recursiveResize=0;strokeColor=inherit;fillColor=none;align=center;whiteSpace=wrap;html=1;" vertex="1" parent="OZ3TrftDz0q_78ra8QCF-61">
          <mxGeometry width="66" height="14" as="geometry">
            <mxRectangle width="66" height="14" as="alternateBounds" />
          </mxGeometry>
        </mxCell>
        <mxCell id="OZ3TrftDz0q_78ra8QCF-63" value="2" style="connectable=0;recursiveResize=0;strokeColor=inherit;fillColor=none;align=center;whiteSpace=wrap;html=1;" vertex="1" parent="OZ3TrftDz0q_78ra8QCF-61">
          <mxGeometry x="66" width="50" height="14" as="geometry">
            <mxRectangle width="50" height="14" as="alternateBounds" />
          </mxGeometry>
        </mxCell>
        <mxCell id="OZ3TrftDz0q_78ra8QCF-64" value="0" style="connectable=0;recursiveResize=0;strokeColor=inherit;fillColor=none;align=center;whiteSpace=wrap;html=1;" vertex="1" parent="OZ3TrftDz0q_78ra8QCF-61">
          <mxGeometry x="116" width="57" height="14" as="geometry">
            <mxRectangle width="57" height="14" as="alternateBounds" />
          </mxGeometry>
        </mxCell>
        <mxCell id="OZ3TrftDz0q_78ra8QCF-65" value="0" style="connectable=0;recursiveResize=0;strokeColor=inherit;fillColor=none;align=center;whiteSpace=wrap;html=1;" vertex="1" parent="OZ3TrftDz0q_78ra8QCF-61">
          <mxGeometry x="173" width="58" height="14" as="geometry">
            <mxRectangle width="58" height="14" as="alternateBounds" />
          </mxGeometry>
        </mxCell>
        <mxCell id="OZ3TrftDz0q_78ra8QCF-66" value="72000" style="connectable=0;recursiveResize=0;strokeColor=inherit;fillColor=none;align=center;whiteSpace=wrap;html=1;" vertex="1" parent="OZ3TrftDz0q_78ra8QCF-61">
          <mxGeometry x="231" width="58" height="14" as="geometry">
            <mxRectangle width="58" height="14" as="alternateBounds" />
          </mxGeometry>
        </mxCell>
        <mxCell id="OZ3TrftDz0q_78ra8QCF-67" value="..." style="connectable=0;recursiveResize=0;strokeColor=inherit;fillColor=none;align=center;whiteSpace=wrap;html=1;" vertex="1" parent="OZ3TrftDz0q_78ra8QCF-61">
          <mxGeometry x="289" width="58" height="14" as="geometry">
            <mxRectangle width="58" height="14" as="alternateBounds" />
          </mxGeometry>
        </mxCell>
        <mxCell id="OZ3TrftDz0q_78ra8QCF-72" style="shape=tableRow;horizontal=0;startSize=0;swimlaneHead=0;swimlaneBody=0;top=0;left=0;bottom=0;right=0;dropTarget=0;collapsible=0;recursiveResize=0;expand=0;fontStyle=0;fillColor=none;strokeColor=inherit;" vertex="1" parent="OZ3TrftDz0q_78ra8QCF-2">
          <mxGeometry y="83" width="346.5" height="13" as="geometry" />
        </mxCell>
        <mxCell id="OZ3TrftDz0q_78ra8QCF-73" value="5" style="connectable=0;recursiveResize=0;strokeColor=inherit;fillColor=none;align=center;whiteSpace=wrap;html=1;" vertex="1" parent="OZ3TrftDz0q_78ra8QCF-72">
          <mxGeometry width="66" height="13" as="geometry">
            <mxRectangle width="66" height="13" as="alternateBounds" />
          </mxGeometry>
        </mxCell>
        <mxCell id="OZ3TrftDz0q_78ra8QCF-74" value="4" style="connectable=0;recursiveResize=0;strokeColor=inherit;fillColor=none;align=center;whiteSpace=wrap;html=1;" vertex="1" parent="OZ3TrftDz0q_78ra8QCF-72">
          <mxGeometry x="66" width="50" height="13" as="geometry">
            <mxRectangle width="50" height="13" as="alternateBounds" />
          </mxGeometry>
        </mxCell>
        <mxCell id="OZ3TrftDz0q_78ra8QCF-75" value="2" style="connectable=0;recursiveResize=0;strokeColor=inherit;fillColor=none;align=center;whiteSpace=wrap;html=1;" vertex="1" parent="OZ3TrftDz0q_78ra8QCF-72">
          <mxGeometry x="116" width="57" height="13" as="geometry">
            <mxRectangle width="57" height="13" as="alternateBounds" />
          </mxGeometry>
        </mxCell>
        <mxCell id="OZ3TrftDz0q_78ra8QCF-76" value="2" style="connectable=0;recursiveResize=0;strokeColor=inherit;fillColor=none;align=center;whiteSpace=wrap;html=1;" vertex="1" parent="OZ3TrftDz0q_78ra8QCF-72">
          <mxGeometry x="173" width="58" height="13" as="geometry">
            <mxRectangle width="58" height="13" as="alternateBounds" />
          </mxGeometry>
        </mxCell>
        <mxCell id="OZ3TrftDz0q_78ra8QCF-77" value="61000" style="connectable=0;recursiveResize=0;strokeColor=inherit;fillColor=none;align=center;whiteSpace=wrap;html=1;" vertex="1" parent="OZ3TrftDz0q_78ra8QCF-72">
          <mxGeometry x="231" width="58" height="13" as="geometry">
            <mxRectangle width="58" height="13" as="alternateBounds" />
          </mxGeometry>
        </mxCell>
        <mxCell id="OZ3TrftDz0q_78ra8QCF-78" value="..." style="connectable=0;recursiveResize=0;strokeColor=inherit;fillColor=none;align=center;whiteSpace=wrap;html=1;" vertex="1" parent="OZ3TrftDz0q_78ra8QCF-72">
          <mxGeometry x="289" width="58" height="13" as="geometry">
            <mxRectangle width="58" height="13" as="alternateBounds" />
          </mxGeometry>
        </mxCell>
        <mxCell id="OZ3TrftDz0q_78ra8QCF-83" style="shape=tableRow;horizontal=0;startSize=0;swimlaneHead=0;swimlaneBody=0;top=0;left=0;bottom=0;right=0;dropTarget=0;collapsible=0;recursiveResize=0;expand=0;fontStyle=0;fillColor=none;strokeColor=inherit;" vertex="1" parent="OZ3TrftDz0q_78ra8QCF-2">
          <mxGeometry y="96" width="346.5" height="14" as="geometry" />
        </mxCell>
        <mxCell id="OZ3TrftDz0q_78ra8QCF-84" value="&lt;span lang=&quot;mul&quot; class=&quot;Zmth headword&quot;&gt;⋮&lt;/span&gt;" style="connectable=0;recursiveResize=0;strokeColor=inherit;fillColor=none;align=center;whiteSpace=wrap;html=1;" vertex="1" parent="OZ3TrftDz0q_78ra8QCF-83">
          <mxGeometry width="66" height="14" as="geometry">
            <mxRectangle width="66" height="14" as="alternateBounds" />
          </mxGeometry>
        </mxCell>
        <mxCell id="OZ3TrftDz0q_78ra8QCF-85" value="⋮" style="connectable=0;recursiveResize=0;strokeColor=inherit;fillColor=none;align=center;whiteSpace=wrap;html=1;" vertex="1" parent="OZ3TrftDz0q_78ra8QCF-83">
          <mxGeometry x="66" width="50" height="14" as="geometry">
            <mxRectangle width="50" height="14" as="alternateBounds" />
          </mxGeometry>
        </mxCell>
        <mxCell id="OZ3TrftDz0q_78ra8QCF-86" value="⋮" style="connectable=0;recursiveResize=0;strokeColor=inherit;fillColor=none;align=center;whiteSpace=wrap;html=1;" vertex="1" parent="OZ3TrftDz0q_78ra8QCF-83">
          <mxGeometry x="116" width="57" height="14" as="geometry">
            <mxRectangle width="57" height="14" as="alternateBounds" />
          </mxGeometry>
        </mxCell>
        <mxCell id="OZ3TrftDz0q_78ra8QCF-87" value="⋮" style="connectable=0;recursiveResize=0;strokeColor=inherit;fillColor=none;align=center;whiteSpace=wrap;html=1;" vertex="1" parent="OZ3TrftDz0q_78ra8QCF-83">
          <mxGeometry x="173" width="58" height="14" as="geometry">
            <mxRectangle width="58" height="14" as="alternateBounds" />
          </mxGeometry>
        </mxCell>
        <mxCell id="OZ3TrftDz0q_78ra8QCF-88" value="⋮" style="connectable=0;recursiveResize=0;strokeColor=inherit;fillColor=none;align=center;whiteSpace=wrap;html=1;" vertex="1" parent="OZ3TrftDz0q_78ra8QCF-83">
          <mxGeometry x="231" width="58" height="14" as="geometry">
            <mxRectangle width="58" height="14" as="alternateBounds" />
          </mxGeometry>
        </mxCell>
        <mxCell id="OZ3TrftDz0q_78ra8QCF-89" value="⋱" style="connectable=0;recursiveResize=0;strokeColor=inherit;fillColor=none;align=center;whiteSpace=wrap;html=1;" vertex="1" parent="OZ3TrftDz0q_78ra8QCF-83">
          <mxGeometry x="289" width="58" height="14" as="geometry">
            <mxRectangle width="58" height="14" as="alternateBounds" />
          </mxGeometry>
        </mxCell>
        <mxCell id="OZ3TrftDz0q_78ra8QCF-123" value="" style="edgeStyle=orthogonalEdgeStyle;rounded=0;orthogonalLoop=1;jettySize=auto;html=1;" edge="1" parent="1" source="OZ3TrftDz0q_78ra8QCF-103" target="OZ3TrftDz0q_78ra8QCF-108">
          <mxGeometry relative="1" as="geometry" />
        </mxCell>
        <mxCell id="OZ3TrftDz0q_78ra8QCF-103" value="Household&lt;br&gt;1" style="rounded=0;whiteSpace=wrap;html=1;" vertex="1" parent="1">
          <mxGeometry x="210" y="610" width="80" height="40" as="geometry" />
        </mxCell>
        <mxCell id="OZ3TrftDz0q_78ra8QCF-124" value="" style="edgeStyle=orthogonalEdgeStyle;rounded=0;orthogonalLoop=1;jettySize=auto;html=1;" edge="1" parent="1" source="OZ3TrftDz0q_78ra8QCF-104" target="OZ3TrftDz0q_78ra8QCF-109">
          <mxGeometry relative="1" as="geometry" />
        </mxCell>
        <mxCell id="OZ3TrftDz0q_78ra8QCF-104" value="Household&lt;br&gt;2" style="rounded=0;whiteSpace=wrap;html=1;" vertex="1" parent="1">
          <mxGeometry x="300" y="610" width="80" height="40" as="geometry" />
        </mxCell>
        <mxCell id="OZ3TrftDz0q_78ra8QCF-125" value="" style="edgeStyle=orthogonalEdgeStyle;rounded=0;orthogonalLoop=1;jettySize=auto;html=1;" edge="1" parent="1" source="OZ3TrftDz0q_78ra8QCF-105" target="OZ3TrftDz0q_78ra8QCF-110">
          <mxGeometry relative="1" as="geometry" />
        </mxCell>
        <mxCell id="OZ3TrftDz0q_78ra8QCF-105" value="Household&lt;br&gt;3" style="rounded=0;whiteSpace=wrap;html=1;" vertex="1" parent="1">
          <mxGeometry x="390" y="610" width="80" height="40" as="geometry" />
        </mxCell>
        <mxCell id="OZ3TrftDz0q_78ra8QCF-126" value="" style="edgeStyle=orthogonalEdgeStyle;rounded=0;orthogonalLoop=1;jettySize=auto;html=1;" edge="1" parent="1" source="OZ3TrftDz0q_78ra8QCF-106" target="OZ3TrftDz0q_78ra8QCF-111">
          <mxGeometry relative="1" as="geometry" />
        </mxCell>
        <mxCell id="OZ3TrftDz0q_78ra8QCF-106" value="Household&lt;br&gt;4" style="rounded=0;whiteSpace=wrap;html=1;" vertex="1" parent="1">
          <mxGeometry x="480" y="610" width="80" height="40" as="geometry" />
        </mxCell>
        <mxCell id="OZ3TrftDz0q_78ra8QCF-127" value="" style="edgeStyle=orthogonalEdgeStyle;rounded=0;orthogonalLoop=1;jettySize=auto;html=1;" edge="1" parent="1" source="OZ3TrftDz0q_78ra8QCF-107" target="OZ3TrftDz0q_78ra8QCF-112">
          <mxGeometry relative="1" as="geometry" />
        </mxCell>
        <mxCell id="OZ3TrftDz0q_78ra8QCF-107" value="Household&lt;br&gt;5" style="rounded=0;whiteSpace=wrap;html=1;" vertex="1" parent="1">
          <mxGeometry x="570" y="610" width="80" height="40" as="geometry" />
        </mxCell>
        <mxCell id="OZ3TrftDz0q_78ra8QCF-138" value="" style="edgeStyle=orthogonalEdgeStyle;rounded=0;orthogonalLoop=1;jettySize=auto;html=1;" edge="1" parent="1" source="OZ3TrftDz0q_78ra8QCF-108" target="OZ3TrftDz0q_78ra8QCF-113">
          <mxGeometry relative="1" as="geometry" />
        </mxCell>
        <mxCell id="OZ3TrftDz0q_78ra8QCF-108" value="Household&lt;br&gt;1" style="rounded=0;whiteSpace=wrap;html=1;" vertex="1" parent="1">
          <mxGeometry x="210" y="670" width="80" height="40" as="geometry" />
        </mxCell>
        <mxCell id="OZ3TrftDz0q_78ra8QCF-139" value="" style="edgeStyle=orthogonalEdgeStyle;rounded=0;orthogonalLoop=1;jettySize=auto;html=1;" edge="1" parent="1" source="OZ3TrftDz0q_78ra8QCF-109" target="OZ3TrftDz0q_78ra8QCF-114">
          <mxGeometry relative="1" as="geometry" />
        </mxCell>
        <mxCell id="OZ3TrftDz0q_78ra8QCF-109" value="Household&lt;br&gt;2" style="rounded=0;whiteSpace=wrap;html=1;" vertex="1" parent="1">
          <mxGeometry x="300" y="670" width="80" height="40" as="geometry" />
        </mxCell>
        <mxCell id="OZ3TrftDz0q_78ra8QCF-140" value="" style="edgeStyle=orthogonalEdgeStyle;rounded=0;orthogonalLoop=1;jettySize=auto;html=1;" edge="1" parent="1" source="OZ3TrftDz0q_78ra8QCF-110" target="OZ3TrftDz0q_78ra8QCF-115">
          <mxGeometry relative="1" as="geometry" />
        </mxCell>
        <mxCell id="OZ3TrftDz0q_78ra8QCF-110" value="Household&lt;br&gt;3" style="rounded=0;whiteSpace=wrap;html=1;" vertex="1" parent="1">
          <mxGeometry x="390" y="670" width="80" height="40" as="geometry" />
        </mxCell>
        <mxCell id="OZ3TrftDz0q_78ra8QCF-141" value="" style="edgeStyle=orthogonalEdgeStyle;rounded=0;orthogonalLoop=1;jettySize=auto;html=1;" edge="1" parent="1" source="OZ3TrftDz0q_78ra8QCF-111" target="OZ3TrftDz0q_78ra8QCF-116">
          <mxGeometry relative="1" as="geometry" />
        </mxCell>
        <mxCell id="OZ3TrftDz0q_78ra8QCF-111" value="Household&lt;br&gt;4" style="rounded=0;whiteSpace=wrap;html=1;" vertex="1" parent="1">
          <mxGeometry x="480" y="670" width="80" height="40" as="geometry" />
        </mxCell>
        <mxCell id="OZ3TrftDz0q_78ra8QCF-146" value="" style="edgeStyle=orthogonalEdgeStyle;rounded=0;orthogonalLoop=1;jettySize=auto;html=1;" edge="1" parent="1" source="OZ3TrftDz0q_78ra8QCF-112" target="OZ3TrftDz0q_78ra8QCF-117">
          <mxGeometry relative="1" as="geometry" />
        </mxCell>
        <mxCell id="OZ3TrftDz0q_78ra8QCF-112" value="Household&lt;br&gt;5" style="rounded=0;whiteSpace=wrap;html=1;" vertex="1" parent="1">
          <mxGeometry x="570" y="670" width="80" height="40" as="geometry" />
        </mxCell>
        <mxCell id="OZ3TrftDz0q_78ra8QCF-142" value="" style="edgeStyle=orthogonalEdgeStyle;rounded=0;orthogonalLoop=1;jettySize=auto;html=1;" edge="1" parent="1" source="OZ3TrftDz0q_78ra8QCF-113" target="OZ3TrftDz0q_78ra8QCF-118">
          <mxGeometry relative="1" as="geometry" />
        </mxCell>
        <mxCell id="OZ3TrftDz0q_78ra8QCF-113" value="Household&lt;br&gt;1" style="rounded=0;whiteSpace=wrap;html=1;" vertex="1" parent="1">
          <mxGeometry x="210" y="740" width="80" height="40" as="geometry" />
        </mxCell>
        <mxCell id="OZ3TrftDz0q_78ra8QCF-143" value="" style="edgeStyle=orthogonalEdgeStyle;rounded=0;orthogonalLoop=1;jettySize=auto;html=1;" edge="1" parent="1" source="OZ3TrftDz0q_78ra8QCF-114" target="OZ3TrftDz0q_78ra8QCF-119">
          <mxGeometry relative="1" as="geometry" />
        </mxCell>
        <mxCell id="OZ3TrftDz0q_78ra8QCF-114" value="Household&lt;br&gt;2" style="rounded=0;whiteSpace=wrap;html=1;" vertex="1" parent="1">
          <mxGeometry x="300" y="740" width="80" height="40" as="geometry" />
        </mxCell>
        <mxCell id="OZ3TrftDz0q_78ra8QCF-144" value="" style="edgeStyle=orthogonalEdgeStyle;rounded=0;orthogonalLoop=1;jettySize=auto;html=1;" edge="1" parent="1" source="OZ3TrftDz0q_78ra8QCF-115" target="OZ3TrftDz0q_78ra8QCF-120">
          <mxGeometry relative="1" as="geometry" />
        </mxCell>
        <mxCell id="OZ3TrftDz0q_78ra8QCF-115" value="Household&lt;br&gt;3" style="rounded=0;whiteSpace=wrap;html=1;" vertex="1" parent="1">
          <mxGeometry x="390" y="740" width="80" height="40" as="geometry" />
        </mxCell>
        <mxCell id="OZ3TrftDz0q_78ra8QCF-145" value="" style="edgeStyle=orthogonalEdgeStyle;rounded=0;orthogonalLoop=1;jettySize=auto;html=1;" edge="1" parent="1" source="OZ3TrftDz0q_78ra8QCF-116" target="OZ3TrftDz0q_78ra8QCF-121">
          <mxGeometry relative="1" as="geometry" />
        </mxCell>
        <mxCell id="OZ3TrftDz0q_78ra8QCF-116" value="Household&lt;br&gt;4" style="rounded=0;whiteSpace=wrap;html=1;" vertex="1" parent="1">
          <mxGeometry x="480" y="740" width="80" height="40" as="geometry" />
        </mxCell>
        <mxCell id="OZ3TrftDz0q_78ra8QCF-147" value="" style="edgeStyle=orthogonalEdgeStyle;rounded=0;orthogonalLoop=1;jettySize=auto;html=1;" edge="1" parent="1" source="OZ3TrftDz0q_78ra8QCF-117" target="OZ3TrftDz0q_78ra8QCF-122">
          <mxGeometry relative="1" as="geometry" />
        </mxCell>
        <mxCell id="OZ3TrftDz0q_78ra8QCF-117" value="Household&lt;br&gt;5" style="rounded=0;whiteSpace=wrap;html=1;" vertex="1" parent="1">
          <mxGeometry x="570" y="740" width="80" height="40" as="geometry" />
        </mxCell>
        <mxCell id="OZ3TrftDz0q_78ra8QCF-118" value="Household&lt;br&gt;1" style="rounded=0;whiteSpace=wrap;html=1;" vertex="1" parent="1">
          <mxGeometry x="210" y="810" width="80" height="40" as="geometry" />
        </mxCell>
        <mxCell id="OZ3TrftDz0q_78ra8QCF-119" value="Household&lt;br&gt;2" style="rounded=0;whiteSpace=wrap;html=1;" vertex="1" parent="1">
          <mxGeometry x="300" y="810" width="80" height="40" as="geometry" />
        </mxCell>
        <mxCell id="OZ3TrftDz0q_78ra8QCF-120" value="Household&lt;br&gt;3" style="rounded=0;whiteSpace=wrap;html=1;" vertex="1" parent="1">
          <mxGeometry x="390" y="810" width="80" height="40" as="geometry" />
        </mxCell>
        <mxCell id="OZ3TrftDz0q_78ra8QCF-121" value="Household&lt;br&gt;4" style="rounded=0;whiteSpace=wrap;html=1;" vertex="1" parent="1">
          <mxGeometry x="480" y="810" width="80" height="40" as="geometry" />
        </mxCell>
        <mxCell id="OZ3TrftDz0q_78ra8QCF-122" value="Household&lt;br&gt;5" style="rounded=0;whiteSpace=wrap;html=1;" vertex="1" parent="1">
          <mxGeometry x="570" y="810" width="80" height="40" as="geometry" />
        </mxCell>
        <mxCell id="OZ3TrftDz0q_78ra8QCF-148" style="edgeStyle=orthogonalEdgeStyle;rounded=0;orthogonalLoop=1;jettySize=auto;html=1;exitX=0;exitY=0.5;exitDx=0;exitDy=0;entryX=0.5;entryY=0;entryDx=0;entryDy=0;curved=1;dashed=1;endArrow=none;endFill=0;startArrow=none;startFill=0;dashPattern=1 1;" edge="1" parent="1" source="OZ3TrftDz0q_78ra8QCF-7" target="OZ3TrftDz0q_78ra8QCF-103">
          <mxGeometry relative="1" as="geometry">
            <mxPoint x="160" y="480" as="targetPoint" />
          </mxGeometry>
        </mxCell>
        <mxCell id="OZ3TrftDz0q_78ra8QCF-149" style="edgeStyle=orthogonalEdgeStyle;rounded=0;orthogonalLoop=1;jettySize=auto;html=1;exitX=0;exitY=0.5;exitDx=0;exitDy=0;entryX=0.5;entryY=0;entryDx=0;entryDy=0;curved=1;dashed=1;endArrow=none;endFill=0;startArrow=none;startFill=0;dashPattern=1 1;" edge="1" parent="1" source="OZ3TrftDz0q_78ra8QCF-11" target="OZ3TrftDz0q_78ra8QCF-104">
          <mxGeometry relative="1" as="geometry" />
        </mxCell>
        <mxCell id="OZ3TrftDz0q_78ra8QCF-150" style="edgeStyle=orthogonalEdgeStyle;rounded=0;orthogonalLoop=1;jettySize=auto;html=1;exitX=0;exitY=0.5;exitDx=0;exitDy=0;entryX=0.5;entryY=0;entryDx=0;entryDy=0;curved=1;dashed=1;endArrow=none;endFill=0;startArrow=none;startFill=0;dashPattern=1 1;" edge="1" parent="1" source="OZ3TrftDz0q_78ra8QCF-50" target="OZ3TrftDz0q_78ra8QCF-105">
          <mxGeometry relative="1" as="geometry" />
        </mxCell>
        <mxCell id="OZ3TrftDz0q_78ra8QCF-151" style="edgeStyle=orthogonalEdgeStyle;rounded=0;orthogonalLoop=1;jettySize=auto;html=1;exitX=0;exitY=0.5;exitDx=0;exitDy=0;entryX=0.5;entryY=0;entryDx=0;entryDy=0;curved=1;dashed=1;endArrow=none;endFill=0;startArrow=none;startFill=0;dashPattern=1 1;" edge="1" parent="1" source="OZ3TrftDz0q_78ra8QCF-61" target="OZ3TrftDz0q_78ra8QCF-106">
          <mxGeometry relative="1" as="geometry" />
        </mxCell>
        <mxCell id="OZ3TrftDz0q_78ra8QCF-152" style="edgeStyle=orthogonalEdgeStyle;rounded=0;orthogonalLoop=1;jettySize=auto;html=1;exitX=0;exitY=0.5;exitDx=0;exitDy=0;entryX=0.5;entryY=0;entryDx=0;entryDy=0;curved=1;dashed=1;endArrow=none;endFill=0;startArrow=none;startFill=0;dashPattern=1 1;" edge="1" parent="1" source="OZ3TrftDz0q_78ra8QCF-72" target="OZ3TrftDz0q_78ra8QCF-107">
          <mxGeometry relative="1" as="geometry" />
        </mxCell>
      </root>
    </mxGraphModel>
  </diagram>
</mxfile>
